<svg width="238" height="180" viewBox="0 0 238 180" fill="none" xmlns="http://www.w3.org/2000/svg">
<path d="M48.2671 27.92L59.4031 46.256L70.6351 27.92H74.2831L61.0831 49.328V62H57.7231V49.232L44.5711 27.92H48.2671ZM137.547 62.24C134.859 62.24 132.587 61.76 130.731 60.8C128.875 59.84 127.403 58.56 126.315 56.96C125.227 55.328 124.427 53.488 123.915 51.44C123.435 49.392 123.195 47.28 123.195 45.104V27.92H126.507V45.104C126.507 46.864 126.683 48.592 127.035 50.288C127.419 51.984 128.027 53.504 128.859 54.848C129.691 56.192 130.811 57.264 132.219 58.064C133.627 58.832 135.387 59.216 137.499 59.216C139.675 59.216 141.467 58.816 142.875 58.016C144.315 57.184 145.435 56.096 146.235 54.752C147.067 53.408 147.659 51.904 148.011 50.24C148.363 48.544 148.539 46.832 148.539 45.104V27.92H151.899V45.104C151.899 47.376 151.643 49.552 151.131 51.632C150.619 53.712 149.787 55.536 148.635 57.104C147.515 58.672 146.043 59.92 144.219 60.848C142.395 61.776 140.171 62.24 137.547 62.24ZM167.109 62V27.92H181.509C182.981 27.92 184.325 28.224 185.541 28.832C186.757 29.44 187.813 30.272 188.709 31.328C189.637 32.352 190.341 33.504 190.821 34.784C191.333 36.032 191.589 37.312 191.589 38.624C191.589 40.256 191.269 41.792 190.629 43.232C190.021 44.672 189.141 45.888 187.989 46.88C186.869 47.872 185.541 48.528 184.005 48.848L192.357 62H188.565L180.549 49.424H170.469V62H167.109ZM170.469 46.448H181.605C182.949 46.448 184.117 46.08 185.109 45.344C186.101 44.608 186.869 43.648 187.413 42.464C187.957 41.248 188.229 39.968 188.229 38.624C188.229 37.248 187.909 35.984 187.269 34.832C186.661 33.648 185.829 32.704 184.773 32C183.749 31.264 182.597 30.896 181.317 30.896H170.469V46.448ZM35.3864 126.992H38.6024L27.8504 152H25.0184L19.7864 139.568L14.6024 152H11.7704L1.01844 126.992H4.18644L13.3064 148.64L17.9144 137.36L13.6904 127.04H16.6184L19.7864 135.152L23.0024 127.04H25.8824L21.7064 137.36L26.3144 148.64L35.3864 126.992ZM60.1016 152.48C58.3096 152.48 56.6456 152.144 55.1096 151.472C53.5736 150.768 52.2456 149.824 51.1256 148.64C50.0056 147.424 49.1256 146.032 48.4856 144.464C47.8776 142.896 47.5736 141.216 47.5736 139.424C47.5736 137.088 48.1016 134.944 49.1576 132.992C50.2456 131.04 51.7336 129.488 53.6216 128.336C55.5096 127.152 57.6536 126.56 60.0536 126.56C62.5176 126.56 64.6616 127.152 66.4856 128.336C68.3416 129.52 69.7976 131.088 70.8536 133.04C71.9096 134.96 72.4376 137.072 72.4376 139.376C72.4376 139.632 72.4376 139.888 72.4376 140.144C72.4376 140.368 72.4216 140.544 72.3896 140.672H50.9816C51.1416 142.464 51.6376 144.064 52.4696 145.472C53.3336 146.848 54.4376 147.952 55.7816 148.784C57.1576 149.584 58.6456 149.984 60.2456 149.984C61.8776 149.984 63.4136 149.568 64.8536 148.736C66.3256 147.904 67.3496 146.816 67.9256 145.472L70.7576 146.24C70.2456 147.424 69.4616 148.496 68.4056 149.456C67.3496 150.416 66.1016 151.168 64.6616 151.712C63.2536 152.224 61.7336 152.48 60.1016 152.48ZM50.8856 138.32H69.3656C69.2376 136.496 68.7416 134.896 67.8776 133.52C67.0456 132.144 65.9416 131.072 64.5656 130.304C63.2216 129.504 61.7336 129.104 60.1016 129.104C58.4696 129.104 56.9816 129.504 55.6376 130.304C54.2936 131.072 53.1896 132.16 52.3256 133.568C51.4936 134.944 51.0136 136.528 50.8856 138.32ZM82.9934 139.568C82.9934 137.2 83.4734 135.04 84.4334 133.088C85.4254 131.104 86.7854 129.52 88.5134 128.336C90.2414 127.152 92.2094 126.56 94.4174 126.56C96.4974 126.56 98.3534 127.12 99.9854 128.24C101.649 129.328 102.945 130.656 103.873 132.224V116.96H107.137V148.064C107.137 148.512 107.233 148.848 107.425 149.072C107.617 149.264 107.905 149.376 108.289 149.408V152C107.649 152.096 107.153 152.128 106.801 152.096C106.129 152.064 105.537 151.792 105.025 151.28C104.513 150.768 104.257 150.208 104.257 149.6V147.152C103.265 148.784 101.921 150.08 100.225 151.04C98.5294 152 96.7694 152.48 94.9454 152.48C93.2174 152.48 91.6174 152.128 90.1454 151.424C88.7054 150.72 87.4414 149.76 86.3534 148.544C85.2974 147.328 84.4654 145.952 83.8574 144.416C83.2814 142.848 82.9934 141.232 82.9934 139.568ZM103.873 143.408V135.68C103.457 134.528 102.785 133.488 101.857 132.56C100.929 131.6 99.8734 130.848 98.6894 130.304C97.5374 129.728 96.3854 129.44 95.2334 129.44C93.8894 129.44 92.6734 129.728 91.5854 130.304C90.4974 130.848 89.5534 131.6 88.7534 132.56C87.9854 133.52 87.3934 134.608 86.9774 135.824C86.5614 137.04 86.3534 138.288 86.3534 139.568C86.3534 140.912 86.5774 142.192 87.0254 143.408C87.5054 144.624 88.1774 145.712 89.0414 146.672C89.9054 147.6 90.8974 148.32 92.0174 148.832C93.1374 149.344 94.3534 149.6 95.6654 149.6C96.4974 149.6 97.3614 149.44 98.2574 149.12C99.1534 148.8 100.001 148.368 100.801 147.824C101.633 147.248 102.321 146.576 102.865 145.808C103.409 145.04 103.745 144.24 103.873 143.408ZM120.053 139.568C120.053 137.2 120.533 135.04 121.493 133.088C122.485 131.104 123.845 129.52 125.573 128.336C127.301 127.152 129.269 126.56 131.477 126.56C133.557 126.56 135.413 127.12 137.045 128.24C138.709 129.328 140.005 130.656 140.933 132.224V116.96H144.197V148.064C144.197 148.512 144.293 148.848 144.485 149.072C144.677 149.264 144.965 149.376 145.349 149.408V152C144.709 152.096 144.213 152.128 143.861 152.096C143.189 152.064 142.597 151.792 142.085 151.28C141.573 150.768 141.317 150.208 141.317 149.6V147.152C140.325 148.784 138.981 150.08 137.285 151.04C135.589 152 133.829 152.48 132.005 152.48C130.277 152.48 128.677 152.128 127.205 151.424C125.765 150.72 124.501 149.76 123.413 148.544C122.357 147.328 121.525 145.952 120.917 144.416C120.341 142.848 120.053 141.232 120.053 139.568ZM140.933 143.408V135.68C140.517 134.528 139.845 133.488 138.917 132.56C137.989 131.6 136.933 130.848 135.749 130.304C134.597 129.728 133.445 129.44 132.293 129.44C130.949 129.44 129.733 129.728 128.645 130.304C127.557 130.848 126.613 131.6 125.813 132.56C125.045 133.52 124.453 134.608 124.037 135.824C123.621 137.04 123.413 138.288 123.413 139.568C123.413 140.912 123.637 142.192 124.085 143.408C124.565 144.624 125.237 145.712 126.101 146.672C126.965 147.6 127.957 148.32 129.077 148.832C130.197 149.344 131.413 149.6 132.725 149.6C133.557 149.6 134.421 149.44 135.317 149.12C136.213 148.8 137.061 148.368 137.861 147.824C138.693 147.248 139.381 146.576 139.925 145.808C140.469 145.04 140.805 144.24 140.933 143.408ZM158.792 152V126.992H162.056V152H158.792ZM158.792 121.76V116.96H162.056V121.76H158.792ZM197.469 152H194.205V138.032C194.205 135.088 193.773 132.944 192.909 131.6C192.045 130.224 190.685 129.536 188.829 129.536C187.549 129.536 186.285 129.856 185.037 130.496C183.789 131.104 182.685 131.952 181.725 133.04C180.797 134.096 180.125 135.312 179.709 136.688V152H176.445V126.992H179.421V132.656C180.093 131.44 180.973 130.384 182.061 129.488C183.149 128.56 184.381 127.84 185.757 127.328C187.133 126.816 188.557 126.56 190.029 126.56C191.405 126.56 192.573 126.816 193.533 127.328C194.493 127.84 195.261 128.576 195.837 129.536C196.413 130.464 196.829 131.6 197.085 132.944C197.341 134.256 197.469 135.728 197.469 137.36V152ZM221.662 152.336C219.966 152.336 218.398 151.984 216.958 151.28C215.518 150.576 214.27 149.632 213.214 148.448C212.19 147.232 211.39 145.856 210.814 144.32C210.238 142.784 209.95 141.2 209.95 139.568C209.95 137.808 210.222 136.16 210.766 134.624C211.342 133.056 212.142 131.664 213.166 130.448C214.222 129.232 215.454 128.288 216.862 127.616C218.27 126.912 219.838 126.56 221.566 126.56C223.71 126.56 225.566 127.104 227.134 128.192C228.734 129.28 230.078 130.624 231.166 132.224V126.992H234.094V152.096C234.094 154.4 233.534 156.336 232.414 157.904C231.326 159.504 229.838 160.704 227.95 161.504C226.094 162.304 224.062 162.704 221.854 162.704C219.006 162.704 216.702 162.192 214.942 161.168C213.182 160.144 211.742 158.768 210.622 157.04L212.638 155.456C213.63 157.024 214.942 158.192 216.574 158.96C218.238 159.728 219.998 160.112 221.854 160.112C223.486 160.112 224.974 159.808 226.318 159.2C227.694 158.624 228.782 157.744 229.582 156.56C230.414 155.376 230.83 153.888 230.83 152.096V147.152C229.87 148.72 228.558 149.984 226.894 150.944C225.23 151.872 223.486 152.336 221.662 152.336ZM222.574 149.6C223.566 149.6 224.51 149.424 225.406 149.072C226.334 148.72 227.182 148.256 227.95 147.68C228.718 147.072 229.358 146.4 229.87 145.664C230.382 144.928 230.702 144.176 230.83 143.408V135.68C230.35 134.464 229.662 133.392 228.766 132.464C227.87 131.504 226.846 130.768 225.694 130.256C224.574 129.712 223.406 129.44 222.19 129.44C220.782 129.44 219.518 129.744 218.398 130.352C217.31 130.928 216.382 131.712 215.614 132.704C214.878 133.664 214.302 134.752 213.886 135.968C213.47 137.184 213.262 138.4 213.262 139.616C213.262 140.96 213.502 142.24 213.982 143.456C214.462 144.64 215.118 145.712 215.95 146.672C216.814 147.6 217.806 148.32 218.926 148.832C220.078 149.344 221.294 149.6 222.574 149.6Z" fill="#3A4756"/>
<path d="M70.6424 115.136C70.4744 115.136 70.2824 115.112 70.0664 115.064C69.8744 115.016 69.6704 114.932 69.4544 114.812C68.7824 114.428 68.2544 113.804 67.8704 112.94C67.4864 112.1 67.2104 111.092 67.0424 109.916C66.8984 108.74 66.8264 107.516 66.8264 106.244C66.8264 105.428 66.8504 104.612 66.8984 103.796C66.9464 102.98 67.0064 102.188 67.0784 101.42L66.5384 101.528C66.4424 101.528 66.2864 101.432 66.0704 101.24C65.8784 101.048 65.6984 100.832 65.5304 100.592C65.3624 100.376 65.2784 100.22 65.2784 100.124C65.3264 99.788 65.5544 99.404 65.9624 98.972C66.3704 98.54 66.8984 98.084 67.5464 97.604C67.5464 97.484 67.5584 97.388 67.5824 97.316C67.7264 96.212 67.9544 94.964 68.2664 93.572C68.5784 92.156 68.9624 90.68 69.4184 89.144C69.8744 87.608 70.4024 86.12 71.0024 84.68C70.5464 84.32 70.0304 84.056 69.4544 83.888C68.8784 83.72 68.3384 83.612 67.8344 83.564C67.3544 83.516 66.9944 83.492 66.7544 83.492C66.6104 83.468 66.5624 83.384 66.6104 83.24C66.6824 83.072 66.8024 82.916 66.9704 82.772C67.1624 82.604 67.3304 82.52 67.4744 82.52C68.1704 82.52 68.8784 82.568 69.5984 82.664C70.3184 82.76 71.0144 82.904 71.6864 83.096L72.0824 82.268C71.9384 82.028 71.8304 81.788 71.7584 81.548C71.7104 81.308 71.6864 81.08 71.6864 80.864C71.6864 80.624 71.7224 80.432 71.7944 80.288C71.9624 79.832 72.1184 79.472 72.2624 79.208C72.4304 78.92 72.6584 78.824 72.9464 78.92C73.3544 79.04 73.7144 79.256 74.0264 79.568C74.3624 79.88 74.4824 80.192 74.3864 80.504C74.1944 80.96 73.9904 81.452 73.7744 81.98C73.5584 82.484 73.3544 83.012 73.1624 83.564C74.5064 84.02 75.7304 84.632 76.8344 85.4C77.9624 86.168 78.8984 87.008 79.6424 87.92C80.2184 88.688 80.4944 89.492 80.4704 90.332L81.6224 89.756C82.0304 89.54 82.3424 89.396 82.5584 89.324C82.7744 89.228 82.9304 89.18 83.0264 89.18C83.1704 89.18 83.1584 89.276 82.9904 89.468C82.8224 89.636 82.5944 89.828 82.3064 90.044C82.0424 90.236 81.8024 90.392 81.5864 90.512L80.3624 91.124C80.2424 91.796 79.9664 92.492 79.5344 93.212C79.1264 93.932 78.6224 94.664 78.0224 95.408C77.2784 96.32 76.3784 97.148 75.3224 97.892C74.2664 98.612 73.1744 99.224 72.0464 99.728C70.9424 100.256 69.8864 100.676 68.8784 100.988C68.5904 103.1 68.4464 105.092 68.4464 106.964C68.4464 107.924 68.4824 108.812 68.5544 109.628C68.6504 110.444 68.7944 111.176 68.9864 111.824C69.2504 112.736 69.5624 113.348 69.9224 113.66C70.3064 113.972 70.6664 114.128 71.0024 114.128C71.2424 114.128 71.4584 114.08 71.6504 113.984C71.8664 113.912 72.0344 113.84 72.1544 113.768C72.3464 113.672 72.5144 113.624 72.6584 113.624C72.8024 113.624 72.8744 113.684 72.8744 113.804C72.8744 113.852 72.8384 113.936 72.7664 114.056C72.6704 114.176 72.4304 114.38 72.0464 114.668C71.6624 114.98 71.1944 115.136 70.6424 115.136ZM69.7064 96.128C71.0744 95.264 72.5384 94.412 74.0984 93.572C75.6824 92.732 77.0984 92 78.3464 91.376C78.5144 90.944 78.5984 90.476 78.5984 89.972C78.5984 89.132 78.2864 88.34 77.6624 87.596C77.0624 86.828 76.0544 86.144 74.6384 85.544C74.3264 85.424 74.0144 85.304 73.7024 85.184C73.3904 85.04 73.0664 84.92 72.7304 84.824C72.1544 86.504 71.6024 88.316 71.0744 90.26C70.5704 92.18 70.1144 94.136 69.7064 96.128ZM69.1664 99.152C70.4624 98.6 71.5904 98.024 72.5504 97.424C73.5344 96.8 74.6144 95.948 75.7904 94.868C76.6544 94.076 77.3264 93.284 77.8064 92.492C76.7504 93.068 75.6824 93.644 74.6024 94.22C73.5464 94.796 72.5744 95.348 71.6864 95.876C70.7984 96.38 70.0664 96.836 69.4904 97.244L69.1664 99.152ZM66.5384 100.124C66.6584 100.076 66.7784 100.028 66.8984 99.98C67.0184 99.932 67.1264 99.896 67.2224 99.872L67.3664 98.828C67.1264 98.996 66.9224 99.188 66.7544 99.404C66.5864 99.62 66.5144 99.86 66.5384 100.124ZM90.6072 97.424C89.7912 97.424 89.1552 97.16 88.6992 96.632C88.2672 96.104 87.9672 95.432 87.7992 94.616C87.6552 93.776 87.5832 92.936 87.5832 92.096C87.5832 91.52 87.6072 90.98 87.6552 90.476C87.7032 89.948 87.7512 89.492 87.7992 89.108C87.9192 88.124 88.0752 87.176 88.2672 86.264C88.4592 85.352 88.6392 84.572 88.8072 83.924C88.9992 83.276 89.1192 82.856 89.1672 82.664C89.2632 82.328 89.4432 82.16 89.7072 82.16C89.9712 82.16 90.2712 82.34 90.6072 82.7C90.9432 83.036 91.1832 83.312 91.3272 83.528C91.8792 83.696 92.4192 83.9 92.9472 84.14C93.4752 84.356 93.9072 84.596 94.2432 84.86C94.6032 85.124 94.7832 85.412 94.7832 85.724C94.7832 86.324 94.5312 86.924 94.0272 87.524C93.5232 88.124 92.8872 88.676 92.1192 89.18C91.3512 89.684 90.5712 90.116 89.7792 90.476C89.7072 91.052 89.6712 91.628 89.6712 92.204C89.6712 93.164 89.7912 94.004 90.0312 94.724C90.2712 95.444 90.6792 95.804 91.2552 95.804C91.7592 95.804 92.2392 95.624 92.6952 95.264C93.1752 94.904 93.6192 94.448 94.0272 93.896C94.4352 93.344 94.7952 92.792 95.1072 92.24C95.4432 91.664 95.6952 91.184 95.8632 90.8C95.9112 90.656 96.0192 90.584 96.1872 90.584C96.2832 90.584 96.3312 90.692 96.3312 90.908C96.3312 91.1 96.1872 91.508 95.8992 92.132C95.6112 92.708 95.3112 93.26 94.9992 93.788C94.7112 94.292 94.4232 94.736 94.1352 95.12C93.7272 95.648 93.2232 96.164 92.6232 96.668C92.0472 97.172 91.3752 97.424 90.6072 97.424ZM89.8872 89.468C90.7272 89.012 91.4712 88.472 92.1192 87.848C92.7912 87.2 93.1272 86.504 93.1272 85.76C93.1272 85.496 92.9232 85.232 92.5152 84.968C92.1312 84.68 91.6752 84.44 91.1472 84.248C90.8592 85.016 90.6072 85.832 90.3912 86.696C90.1992 87.56 90.0312 88.484 89.8872 89.468ZM107.537 96.092C106.649 96.092 106.049 95.6 105.737 94.616C105.425 93.608 105.269 92.372 105.269 90.908C105.269 90.116 105.293 89.348 105.341 88.604C105.389 87.836 105.425 87.2 105.449 86.696C105.065 86.648 104.693 86.576 104.333 86.48C103.997 86.36 103.733 86.24 103.541 86.12C103.517 86.288 103.421 86.636 103.253 87.164C103.085 87.668 102.881 88.256 102.641 88.928C102.425 89.6 102.185 90.26 101.921 90.908C101.657 91.556 101.405 92.096 101.165 92.528C100.925 92.936 100.709 93.14 100.517 93.14C100.421 93.14 100.373 93.068 100.373 92.924C100.373 92.732 100.457 92.468 100.625 92.132C101.105 91.148 101.537 90.14 101.921 89.108C102.305 88.076 102.653 87.008 102.965 85.904C102.725 85.808 102.545 85.64 102.425 85.4C102.329 85.136 102.281 84.848 102.281 84.536C102.281 83.672 102.401 82.964 102.641 82.412C102.905 81.86 103.193 81.452 103.505 81.188C103.817 80.9 104.057 80.756 104.225 80.756C104.513 80.756 104.657 80.996 104.657 81.476C104.657 81.716 104.597 82.088 104.477 82.592C104.357 83.072 104.213 83.576 104.045 84.104C103.877 84.608 103.733 85.016 103.613 85.328C103.613 85.328 103.685 85.376 103.829 85.472C103.973 85.568 104.129 85.616 104.297 85.616C104.537 85.616 104.765 85.472 104.981 85.184C105.221 84.872 105.497 84.572 105.809 84.284C106.145 83.972 106.565 83.816 107.069 83.816C107.333 83.816 107.561 83.852 107.753 83.924C107.945 83.972 108.041 84.068 108.041 84.212V84.32C107.801 84.92 107.621 85.712 107.501 86.696C107.381 87.656 107.321 88.628 107.321 89.612C107.321 90.476 107.369 91.292 107.465 92.06C107.561 92.804 107.705 93.404 107.897 93.86C108.113 94.316 108.365 94.544 108.653 94.544C108.941 94.544 109.217 94.388 109.481 94.076C109.745 93.764 109.973 93.428 110.165 93.068C110.381 92.708 110.525 92.444 110.597 92.276C111.101 91.34 111.413 90.74 111.533 90.476C111.653 90.188 111.809 90.044 112.001 90.044C112.073 90.044 112.109 90.092 112.109 90.188C112.109 90.236 112.085 90.356 112.037 90.548C111.749 91.34 111.389 92.168 110.957 93.032C110.549 93.872 110.057 94.592 109.481 95.192C108.905 95.792 108.257 96.092 107.537 96.092ZM120.686 113.3C119.726 113.3 118.934 113 118.31 112.4C117.686 111.824 117.194 111.044 116.834 110.06C116.498 109.076 116.258 107.96 116.114 106.712C115.994 105.464 115.934 104.192 115.934 102.896C115.934 101.144 116.018 99.488 116.186 97.928C116.354 96.368 116.498 95.192 116.618 94.4C116.666 94.064 116.738 93.608 116.834 93.032C116.954 92.456 117.098 91.832 117.266 91.16C117.146 91.16 117.014 91.16 116.87 91.16C116.726 91.136 116.594 91.124 116.474 91.124H116.402L115.07 91.844C114.926 91.892 114.842 91.916 114.818 91.916C114.722 91.916 114.674 91.856 114.674 91.736C114.674 91.52 114.842 91.184 115.178 90.728C115.538 90.248 115.946 89.912 116.402 89.72L117.698 89.18C117.986 88.004 118.286 86.756 118.598 85.436C118.934 84.116 119.258 82.832 119.57 81.584C119.882 80.312 120.17 79.16 120.434 78.128C120.722 77.072 120.962 76.22 121.154 75.572C121.346 74.9 121.466 74.516 121.514 74.42C121.586 74.324 121.67 74.276 121.766 74.276C121.958 74.276 122.162 74.384 122.378 74.6C122.618 74.792 122.822 75.008 122.99 75.248C123.182 75.488 123.29 75.68 123.314 75.824C123.386 76.04 123.422 76.292 123.422 76.58C123.422 76.844 123.374 77.228 123.278 77.732C123.206 78.236 123.026 78.956 122.738 79.892C122.282 81.428 121.79 82.868 121.262 84.212C120.758 85.532 120.302 86.936 119.894 88.424C121.022 88.04 122.198 87.68 123.422 87.344C124.67 87.008 125.846 86.732 126.95 86.516C128.054 86.276 128.93 86.156 129.578 86.156C129.722 86.156 129.854 86.168 129.974 86.192C130.094 86.192 130.154 86.228 130.154 86.3C130.154 86.348 130.106 86.408 130.01 86.48C129.914 86.552 129.806 86.6 129.686 86.624C128.438 86.792 126.89 87.152 125.042 87.704C123.218 88.256 121.394 88.916 119.57 89.684C119.522 89.852 119.474 90.02 119.426 90.188C119.402 90.356 119.366 90.524 119.318 90.692C122.27 91.436 124.61 92.768 126.338 94.688C128.09 96.608 128.966 98.996 128.966 101.852C128.966 102.644 128.822 103.544 128.534 104.552C128.246 105.56 127.838 106.568 127.31 107.576C126.806 108.608 126.206 109.556 125.51 110.42C124.814 111.284 124.058 111.98 123.242 112.508C122.426 113.036 121.574 113.3 120.686 113.3ZM121.802 112.22C122.426 112.22 123.002 111.956 123.53 111.428C124.082 110.924 124.574 110.276 125.006 109.484C125.462 108.692 125.846 107.888 126.158 107.072C126.47 106.28 126.686 105.596 126.806 105.02C127.094 103.676 127.238 102.428 127.238 101.276C127.238 98.756 126.566 96.62 125.222 94.868C123.902 93.092 121.886 91.94 119.174 91.412C119.126 91.7 119.078 91.988 119.03 92.276C118.982 92.564 118.934 92.864 118.886 93.176C118.67 94.568 118.49 96.08 118.346 97.712C118.226 99.32 118.166 100.904 118.166 102.464C118.166 104.264 118.286 105.896 118.526 107.36C118.79 108.848 119.186 110.024 119.714 110.888C120.266 111.776 120.962 112.22 121.802 112.22ZM136.585 97.424C135.769 97.424 135.133 97.16 134.677 96.632C134.245 96.104 133.945 95.432 133.777 94.616C133.633 93.776 133.561 92.936 133.561 92.096C133.561 91.52 133.585 90.98 133.633 90.476C133.681 89.948 133.729 89.492 133.777 89.108C133.897 88.124 134.053 87.176 134.245 86.264C134.437 85.352 134.617 84.572 134.785 83.924C134.977 83.276 135.097 82.856 135.145 82.664C135.241 82.328 135.421 82.16 135.685 82.16C135.949 82.16 136.249 82.34 136.585 82.7C136.921 83.036 137.161 83.312 137.305 83.528C137.857 83.696 138.397 83.9 138.925 84.14C139.453 84.356 139.885 84.596 140.221 84.86C140.581 85.124 140.761 85.412 140.761 85.724C140.761 86.324 140.509 86.924 140.005 87.524C139.501 88.124 138.865 88.676 138.097 89.18C137.329 89.684 136.549 90.116 135.757 90.476C135.685 91.052 135.649 91.628 135.649 92.204C135.649 93.164 135.769 94.004 136.009 94.724C136.249 95.444 136.657 95.804 137.233 95.804C137.737 95.804 138.217 95.624 138.673 95.264C139.153 94.904 139.597 94.448 140.005 93.896C140.413 93.344 140.773 92.792 141.085 92.24C141.421 91.664 141.673 91.184 141.841 90.8C141.889 90.656 141.997 90.584 142.165 90.584C142.261 90.584 142.309 90.692 142.309 90.908C142.309 91.1 142.165 91.508 141.877 92.132C141.589 92.708 141.289 93.26 140.977 93.788C140.689 94.292 140.401 94.736 140.113 95.12C139.705 95.648 139.201 96.164 138.601 96.668C138.025 97.172 137.353 97.424 136.585 97.424ZM135.865 89.468C136.705 89.012 137.449 88.472 138.097 87.848C138.769 87.2 139.105 86.504 139.105 85.76C139.105 85.496 138.901 85.232 138.493 84.968C138.109 84.68 137.653 84.44 137.125 84.248C136.837 85.016 136.585 85.832 136.369 86.696C136.177 87.56 136.009 88.484 135.865 89.468ZM150.671 98.72C149.279 98.72 148.187 98.348 147.395 97.604C146.627 96.86 146.243 95.948 146.243 94.868C146.243 93.716 146.483 92.564 146.963 91.412C147.443 90.236 148.091 89.12 148.907 88.064C149.723 87.008 150.647 86.072 151.679 85.256C152.711 84.44 153.803 83.792 154.955 83.312C156.107 82.832 157.235 82.592 158.339 82.592C159.011 82.592 159.563 82.712 159.995 82.952C160.427 83.192 160.643 83.432 160.643 83.672C160.643 83.744 160.619 83.804 160.571 83.852C160.475 83.948 160.331 84.2 160.139 84.608C159.971 84.992 159.791 85.436 159.599 85.94C159.431 86.444 159.275 86.96 159.131 87.488C159.011 87.992 158.951 88.424 158.951 88.784C158.903 89.048 158.783 89.18 158.591 89.18C158.423 89.18 158.219 88.988 157.979 88.604C157.763 88.196 157.655 87.656 157.655 86.984C157.655 86.552 157.739 86.096 157.907 85.616C158.099 85.136 158.279 84.704 158.447 84.32C158.639 83.912 158.735 83.624 158.735 83.456C158.735 83.36 158.687 83.312 158.591 83.312C158.519 83.312 158.447 83.312 158.375 83.312C157.871 83.312 157.163 83.54 156.251 83.996C155.339 84.428 154.271 85.232 153.047 86.408C152.231 87.2 151.475 88.124 150.779 89.18C150.083 90.236 149.519 91.304 149.087 92.384C148.679 93.464 148.475 94.46 148.475 95.372C148.475 96.428 148.739 97.112 149.267 97.424C149.819 97.736 150.443 97.892 151.139 97.892C152.339 97.892 153.539 97.664 154.739 97.208C155.963 96.752 157.103 96.128 158.159 95.336C159.239 94.544 160.139 93.644 160.859 92.636C160.883 92.588 160.907 92.564 160.931 92.564C160.955 92.54 160.967 92.528 160.967 92.528C161.015 92.528 161.039 92.576 161.039 92.672C161.039 92.792 161.003 92.96 160.931 93.176C160.883 93.392 160.811 93.56 160.715 93.68C160.235 94.424 159.551 95.192 158.663 95.984C157.775 96.752 156.671 97.4 155.351 97.928C154.031 98.456 152.471 98.72 150.671 98.72ZM171.658 98.54C170.818 98.54 170.134 98.276 169.606 97.748C169.078 97.196 168.67 96.488 168.382 95.624C168.118 94.76 167.938 93.836 167.842 92.852C167.746 91.844 167.698 90.896 167.698 90.008C167.698 89.48 167.71 89 167.734 88.568C167.758 88.112 167.782 87.728 167.806 87.416C167.854 86.504 167.938 85.508 168.058 84.428C168.178 83.324 168.322 82.196 168.49 81.044C167.242 81.236 166.102 81.392 165.07 81.512C164.014 81.632 163.138 81.692 162.442 81.692C162.346 81.692 162.202 81.572 162.01 81.332C161.818 81.092 161.674 80.84 161.578 80.576C161.458 80.312 161.446 80.192 161.542 80.216C161.782 80.24 162.01 80.264 162.226 80.288C162.442 80.288 162.67 80.288 162.91 80.288C163.63 80.288 164.434 80.24 165.322 80.144C166.186 80.048 167.302 79.928 168.67 79.784C168.862 78.584 169.066 77.396 169.282 76.22C169.522 75.044 169.762 73.928 170.002 72.872C170.122 72.392 170.23 72.008 170.326 71.72C170.446 71.432 170.662 71.312 170.974 71.36C171.262 71.408 171.562 71.516 171.874 71.684C172.186 71.852 172.402 72.044 172.522 72.26C173.002 72.716 173.35 73.292 173.566 73.988C173.782 74.66 173.89 75.416 173.89 76.256C173.89 77.144 173.782 78.116 173.566 79.172C174.886 78.98 176.242 78.752 177.634 78.488C179.05 78.2 180.418 77.912 181.738 77.624C183.082 77.312 184.294 77.036 185.374 76.796C185.542 76.748 185.566 76.772 185.446 76.868C185.326 76.94 185.158 77.024 184.942 77.12C184.726 77.216 184.546 77.288 184.402 77.336C182.89 77.864 181.162 78.38 179.218 78.884C177.274 79.388 175.318 79.832 173.35 80.216C172.966 81.824 172.426 83.492 171.73 85.22C171.034 86.924 170.302 88.568 169.534 90.152C169.534 90.392 169.522 90.632 169.498 90.872C169.498 91.088 169.498 91.316 169.498 91.556C169.498 92.732 169.558 93.788 169.678 94.724C169.822 95.636 170.05 96.38 170.362 96.956C170.578 97.364 170.818 97.652 171.082 97.82C171.37 97.964 171.646 98.036 171.91 98.036C172.174 98.036 172.426 97.988 172.666 97.892C172.906 97.796 173.086 97.724 173.206 97.676C173.47 97.556 173.65 97.508 173.746 97.532C173.842 97.556 173.83 97.628 173.71 97.748C173.638 97.844 173.422 98 173.062 98.216C172.702 98.432 172.234 98.54 171.658 98.54ZM170.974 79.532L171.478 79.46L172.738 79.316C172.858 78.764 172.942 78.236 172.99 77.732C173.062 77.228 173.098 76.748 173.098 76.292C173.098 75.044 172.87 74.048 172.414 73.304C172.15 74.264 171.898 75.272 171.658 76.328C171.418 77.384 171.19 78.452 170.974 79.532ZM169.642 88.28C170.218 86.96 170.758 85.628 171.262 84.284C171.766 82.94 172.174 81.644 172.486 80.396C172.174 80.444 171.874 80.492 171.586 80.54C171.298 80.588 171.01 80.636 170.722 80.684C170.482 81.98 170.266 83.276 170.074 84.572C169.906 85.844 169.762 87.08 169.642 88.28Z" fill="#7B80CF"/>
<path d="M94.4895 28.9552C102.556 28.9552 109.118 35.5176 109.118 43.5833C109.118 51.6491 102.556 58.2115 94.4895 58.2115C86.4229 58.2115 79.8614 51.65 79.8614 43.5833C79.8614 35.5167 86.4238 28.9552 94.4895 28.9552ZM94.4895 25.2885C84.3851 25.2885 76.1947 33.4789 76.1947 43.5833C76.1947 53.6877 84.3851 61.8782 94.4895 61.8782C104.594 61.8782 112.784 53.6877 112.784 43.5833C112.784 33.4789 104.594 25.2885 94.4895 25.2885Z" fill="#F0E9F9"/>
<path d="M97.8712 21.5833H90.8422L89.9255 16.9606H98.7879L97.8712 21.5833Z" fill="#D5E9F4"/>
<path d="M94.4895 61.8782C104.593 61.8782 112.784 53.6873 112.784 43.5833C112.784 33.4794 104.593 25.2885 94.4895 25.2885C84.3856 25.2885 76.1947 33.4794 76.1947 43.5833C76.1947 53.6873 84.3856 61.8782 94.4895 61.8782Z" stroke="#3A4756" stroke-width="2" stroke-miterlimit="10" stroke-linecap="round" stroke-linejoin="round"/>
<path d="M85.6052 16.9615L88.5844 22.8923" stroke="#3A4756" stroke-width="2" stroke-miterlimit="10" stroke-linecap="round" stroke-linejoin="round"/>
<path d="M102.969 16.9606L99.9895 22.8905" stroke="#3A4756" stroke-width="2" stroke-miterlimit="10" stroke-linecap="round" stroke-linejoin="round"/>
<path d="M97.8711 21.5833H90.8421L89.9254 16.9606H98.7877L97.8711 21.5833Z" stroke="#3A4756" stroke-width="2" stroke-miterlimit="10" stroke-linecap="round" stroke-linejoin="round"/>
</svg>
